<svg width="222" height="348" viewBox="0 0 222 348" fill="none" xmlns="http://www.w3.org/2000/svg">
<path d="M142.53 209.283C142.53 227.254 148.75 236.24 161.192 236.24C166.107 236.24 171.253 234.09 176.629 229.789C182.158 225.334 187.15 220.035 191.605 213.891C201.435 199.76 208.347 188.24 212.341 179.331L215.336 172.88H221.557C218.946 179.024 215.106 186.627 210.037 195.69C204.968 204.598 200.13 212.125 195.522 218.269C190.914 224.413 185.461 230.019 179.163 235.088C172.866 240.003 166.875 242.461 161.192 242.461C145.218 242.461 135.08 235.165 130.779 220.573C129.397 215.965 128.706 210.205 128.706 203.293C128.706 196.227 130.856 187.626 135.157 177.488C141.454 162.435 150.056 152.298 160.962 147.075C165.262 145.078 169.486 144.08 173.634 144.08C177.934 144.08 181.314 145.232 183.771 147.536C186.69 150.301 188.149 153.526 188.149 157.213C188.149 160.746 187.765 164.048 186.997 167.12C186.229 170.192 184.616 172.957 182.158 175.414C179.854 177.718 177.243 178.87 174.325 178.87C173.096 178.87 172.174 178.026 171.56 176.336C172.789 176.336 174.402 174.186 176.398 169.885C178.549 165.43 179.624 161.053 179.624 156.752C179.624 152.451 177.781 150.301 174.094 150.301C166.107 150.301 158.811 156.982 152.206 170.346C145.755 183.709 142.53 196.688 142.53 209.283Z" fill="#5C6784"/>
<path d="M141.747 167.904C145.587 167.904 147.507 171.13 147.507 177.581C147.507 182.189 144.973 195.552 139.904 217.67C134.835 239.635 130.304 257.837 126.31 272.275C122.317 286.714 118.554 297.389 115.021 304.301C111.488 311.366 107.187 318.432 102.118 325.498C97.2032 332.563 91.7504 337.402 85.76 340.013C79.7696 342.624 72.8576 343.93 65.024 343.93C50.432 343.93 43.136 336.48 43.136 321.581C43.136 312.826 46.4384 303.379 53.0432 293.242C62.5664 278.342 75.3152 268.512 91.2896 263.75C96.9728 262.061 102.886 261.216 109.03 261.216C110.106 261.216 110.643 262.291 110.643 264.442C110.643 266.592 110.106 267.667 109.03 267.667C90.9056 267.667 75.6992 274.81 63.4112 289.094C54.3488 299.846 49.8176 310.214 49.8176 320.198C49.8176 330.182 53.6576 335.942 61.3376 337.478L65.024 337.709C77.6192 337.709 87.6032 332.486 94.976 322.042C102.502 311.443 108.416 298.08 112.717 281.952C117.018 265.67 122.547 240.173 129.306 205.459H127.462C110.874 236.64 97.2032 252.23 86.4512 252.23C74.3168 252.23 68.2496 243.091 68.2496 224.813C68.2496 214.214 71.0144 202.618 76.544 190.022C84.224 172.973 93.9776 161.837 105.805 156.614C109.952 154.925 114.099 154.08 118.246 154.08C122.547 154.08 125.926 155.309 128.384 157.766C130.842 160.224 132.07 162.989 132.07 166.061C132.07 167.443 131.302 168.134 129.766 168.134C128.384 167.981 127.693 167.213 127.693 165.83C127.693 164.448 126.925 163.219 125.389 162.144C124.006 160.915 121.933 160.301 119.168 160.301C109.491 160.301 100.736 168.979 92.9024 186.336C85.5296 202.464 81.8432 217.747 81.8432 232.186C81.8432 241.094 83.7632 245.549 87.6032 245.549C92.672 245.549 99.2768 239.558 107.418 227.578C119.706 209.453 129.306 191.712 136.218 174.355C138.061 170.054 139.904 167.904 141.747 167.904Z" fill="#5C6784"/>
<path d="M14.76 218.362C14.76 236.947 21.3648 246.24 34.5744 246.24C39.4896 246.24 44.6352 244.09 50.0112 239.789C55.5408 235.334 60.5328 230.035 64.9872 223.891C74.8176 209.76 81.7296 198.24 85.7232 189.331L88.7184 182.88H94.9392C92.328 189.024 88.488 196.627 83.4192 205.69C78.3504 214.598 73.512 222.125 68.904 228.269C64.296 234.413 58.8432 240.019 52.5456 245.088C46.248 250.003 40.2576 252.461 34.5744 252.461C11.8416 252.461 0.4752 239.712 0.4752 214.214C0.4752 202.387 3.9312 190.56 10.8432 178.733C20.3664 162.298 32.1168 154.08 46.0944 154.08C55.9248 154.08 60.84 159.456 60.84 170.208C60.84 178.195 57.768 186.49 51.624 195.091C43.0224 206.765 32.9616 212.678 21.4416 212.832C19.752 212.832 18.6768 212.064 18.216 210.528L17.9856 209.606C25.9728 209.606 33.576 204.384 40.7952 193.939C48.168 183.341 51.8544 174.509 51.8544 167.443C51.8544 162.682 50.0112 160.301 46.3248 160.301C38.184 160.301 30.5808 167.443 23.5152 181.728C17.6784 193.862 14.76 206.074 14.76 218.362Z" fill="#5C6784"/>
</svg>